<svg width="561" height="566" viewBox="0 0 561 566" fill="none" xmlns="http://www.w3.org/2000/svg">
<g filter="url(#filter0_dii_195_3)">
<path d="M348.219 83.3784C357.801 83.4098 366.989 87.2852 373.742 94.1428L468.357 190.225C475.072 197.043 478.826 206.249 478.795 215.818L478.357 351.576C478.327 361.09 474.556 370.19 467.867 376.895L372.41 472.578C365.681 479.322 356.55 483.094 347.023 483.062L212.781 482.622C203.199 482.59 194.011 478.715 187.258 471.857L92.6427 375.776C85.9285 368.957 82.1739 359.751 82.2048 350.182L82.6427 214.424C82.6734 204.91 86.4439 195.81 93.1335 189.105L188.591 93.4218C195.319 86.6776 204.45 82.9064 213.977 82.9376L348.219 83.3784Z" fill="url(#paint0_linear_195_3)"/>
</g>
<g filter="url(#filter1_i_195_3)">
<path d="M351.599 114.229L377.193 138.855L403 165L449.86 213.682L449.64 353.639C411.772 392.463 390.787 414.482 351.068 452.116L335 453.5L317 453.5L282 453.5L246.5 453.5L228 453.5L211.885 451.425L185.5 428L160.5 402.5L111.5 351.5L111.5 282L112.914 211.459C139.858 181.427 171.969 151.499 211.487 112.982L222.787 112.982L229.787 112.982L247.287 112.982L281.787 112.982L316.787 112.982L333.787 112.982L342.287 112.982L351.599 114.229Z" fill="#FF9C12" fill-opacity="0.9"/>
</g>
<g filter="url(#filter2_i_195_3)">
<path d="M351.599 114.229L377.193 138.855L403 165L449.86 213.682L449.64 353.639C411.772 392.463 390.787 414.482 351.068 452.116L335 453.5L317 453.5L282 453.5L246.5 453.5L228 453.5L211.885 451.425L185.5 428L160.5 402.5L111.5 351.5L111.5 282L112.914 211.459C139.858 181.427 171.969 151.499 211.487 112.982L222.787 112.982L229.787 112.982L247.287 112.982L281.787 112.982L316.787 112.982L333.787 112.982L342.287 112.982L351.599 114.229Z" fill="#FF9C12" fill-opacity="0.9"/>
</g>
<g filter="url(#filter3_i_195_3)">
<path d="M337.493 108.196C347.345 108.227 356.793 112.212 363.735 119.264L443.316 200.104C450.215 207.112 454.073 216.575 454.04 226.409L453.653 340.779C453.62 350.553 449.747 359.902 442.875 366.792L362.469 447.413C355.555 454.345 346.171 458.223 336.38 458.192L223.451 457.839C213.599 457.808 204.151 453.824 197.209 446.771L117.628 365.932C110.728 358.923 106.871 349.461 106.904 339.626L107.291 225.257C107.324 215.483 111.197 206.134 118.069 199.244L198.474 118.623C205.389 111.69 214.773 107.813 224.564 107.843L337.493 108.196Z" stroke="url(#paint1_linear_195_3)" stroke-width="10"/>
</g>
<mask id="mask0_195_3" style="mask-type:alpha" maskUnits="userSpaceOnUse" x="82" y="82" width="397" height="402">
<path d="M348.219 83.3784C357.801 83.4098 366.989 87.2852 373.742 94.1428L468.357 190.225C475.072 197.043 478.826 206.249 478.795 215.818L478.357 351.576C478.327 361.09 474.556 370.19 467.867 376.895L372.41 472.578C365.681 479.322 356.55 483.094 347.023 483.062L212.781 482.622C203.199 482.59 194.011 478.715 187.258 471.857L92.6427 375.776C85.9285 368.957 82.1739 359.751 82.2048 350.182L82.6427 214.424C82.6734 204.91 86.4439 195.81 93.1335 189.105L188.591 93.4218C195.319 86.6776 204.45 82.9064 213.977 82.9376L348.219 83.3784Z" fill="url(#paint2_linear_195_3)"/>
</mask>
<g mask="url(#mask0_195_3)">
<g filter="url(#filter4_f_195_3)">
<path d="M417.466 93.8406L456.43 125.536L234.027 400.106L215.625 422.407L155.964 494.905L117 463.21L215.267 342.558L236.614 316.551L417.466 93.8406Z" fill="url(#paint3_linear_195_3)"/>
</g>
</g>
<g filter="url(#filter5_di_195_3)">
<path d="M352.046 283.237C344.424 277.267 333.566 274.879 333.566 274.879C333.566 274.879 342.754 269.339 346.509 263.805C350.268 258.268 352.146 249.69 352.46 245.24C352.772 240.787 353.504 222.116 339.514 211.37C328.693 203.055 316.293 199.754 299.64 198.68V161H277.301V198.235H260.285V161H237.948V198.235H194V222.36H206.918C210.439 222.36 216.703 222.768 219.364 225.865C222.027 228.958 222.496 230.588 222.496 236.61L222.498 332.742C222.498 335.021 222.08 337.842 220.199 339.689C218.322 341.536 216.444 341.967 211.953 341.967H198.593L194 369.871H237.948V407H260.286V369.871H277.302V407H299.642V369.258C305.416 368.907 310.801 368.452 313.941 368.025C320.31 367.158 334.715 365.421 348.184 355.65C361.648 345.877 364.673 330.57 364.987 315.155C365.305 299.74 359.66 289.208 352.046 283.237ZM260.285 224.507C260.285 224.507 267.383 223.857 274.378 223.963C281.374 224.071 287.53 224.289 296.719 227.221C305.904 230.153 311.328 237.319 311.541 245.787C311.749 254.255 308.196 259.898 301.935 263.481C295.673 267.063 287.013 269.018 278.867 269.34C270.726 269.667 260.285 269.34 260.285 269.34V224.507ZM310.287 335.563C305.172 338.496 294.941 341.101 285.026 341.859C275.108 342.62 260.285 342.294 260.285 342.294V292.463C260.285 292.463 274.483 291.705 285.549 292.463C296.614 293.226 305.904 296.155 310.077 298.329C314.253 300.499 321.562 305.274 321.562 316.675C321.562 328.072 315.399 332.633 310.287 335.563Z" fill="url(#paint4_linear_195_3)"/>
</g>
<path d="M275 161H277V198.268H275V161Z" fill="#D9941A"/>
<path d="M236 123H238V161H236V123Z" fill="#BF8F20" fill-opacity="0.6"/>
<path d="M236 161H238V198.268H236V161Z" fill="#BF8F20" fill-opacity="0.6"/>
<path d="M236 369.891L238 369.867V413H236V369.891Z" fill="#BF930A"/>
<path d="M275 369.863H276H277.305V447H275V369.863Z" fill="#BF910B"/>
<path d="M222.5 239.5L222.425 234.352L221.909 235.313V238.735V240.5L221.909 338L222.5 336.929L222.5 239.5Z" fill="url(#paint5_linear_195_3)"/>
<path d="M194.5 369.867H196.73H199V375.865H194L194.5 369.867Z" fill="#BF8F20"/>
<path d="M277.295 393H299.65V440H277.295L277.295 393Z" fill="#FFA714"/>
<path d="M238 126H260.355V173H238L238 126Z" fill="#FFD640"/>
<path d="M277.363 440H299.687V447H277.363V440Z" fill="#BF750D"/>
<path d="M238 123H260.325V126H238V123Z" fill="#FFE854"/>
<defs>
<filter id="filter0_dii_195_3" x="81.2046" y="79.9375" width="421.591" height="422.125" filterUnits="userSpaceOnUse" color-interpolation-filters="sRGB">
<feFlood flood-opacity="0" result="BackgroundImageFix"/>
<feColorMatrix in="SourceAlpha" type="matrix" values="0 0 0 0 0 0 0 0 0 0 0 0 0 0 0 0 0 0 127 0" result="hardAlpha"/>
<feOffset dx="16" dy="11"/>
<feGaussianBlur stdDeviation="4"/>
<feComposite in2="hardAlpha" operator="out"/>
<feColorMatrix type="matrix" values="0 0 0 0 0 0 0 0 0 0 0 0 0 0 0 0 0 0 0.25 0"/>
<feBlend mode="normal" in2="BackgroundImageFix" result="effect1_dropShadow_195_3"/>
<feBlend mode="normal" in="SourceGraphic" in2="effect1_dropShadow_195_3" result="shape"/>
<feColorMatrix in="SourceAlpha" type="matrix" values="0 0 0 0 0 0 0 0 0 0 0 0 0 0 0 0 0 0 127 0" result="hardAlpha"/>
<feOffset dx="2" dy="-3"/>
<feGaussianBlur stdDeviation="2"/>
<feComposite in2="hardAlpha" operator="arithmetic" k2="-1" k3="1"/>
<feColorMatrix type="matrix" values="0 0 0 0 0 0 0 0 0 0 0 0 0 0 0 0 0 0 0.25 0"/>
<feBlend mode="normal" in2="shape" result="effect2_innerShadow_195_3"/>
<feColorMatrix in="SourceAlpha" type="matrix" values="0 0 0 0 0 0 0 0 0 0 0 0 0 0 0 0 0 0 127 0" result="hardAlpha"/>
<feOffset dx="-1" dy="3"/>
<feGaussianBlur stdDeviation="2.5"/>
<feComposite in2="hardAlpha" operator="arithmetic" k2="-1" k3="1"/>
<feColorMatrix type="matrix" values="0 0 0 0 0.964706 0 0 0 0 0.564706 0 0 0 0 0.00784314 0 0 0 0.65 0"/>
<feBlend mode="normal" in2="effect2_innerShadow_195_3" result="effect3_innerShadow_195_3"/>
</filter>
<filter id="filter1_i_195_3" x="111.5" y="112.982" width="338.36" height="348.518" filterUnits="userSpaceOnUse" color-interpolation-filters="sRGB">
<feFlood flood-opacity="0" result="BackgroundImageFix"/>
<feBlend mode="normal" in="SourceGraphic" in2="BackgroundImageFix" result="shape"/>
<feColorMatrix in="SourceAlpha" type="matrix" values="0 0 0 0 0 0 0 0 0 0 0 0 0 0 0 0 0 0 127 0" result="hardAlpha"/>
<feMorphology radius="16" operator="erode" in="SourceAlpha" result="effect1_innerShadow_195_3"/>
<feOffset dy="8"/>
<feGaussianBlur stdDeviation="12.5"/>
<feComposite in2="hardAlpha" operator="arithmetic" k2="-1" k3="1"/>
<feColorMatrix type="matrix" values="0 0 0 0 0.964706 0 0 0 0 0.564706 0 0 0 0 0.00784314 0 0 0 1 0"/>
<feBlend mode="normal" in2="shape" result="effect1_innerShadow_195_3"/>
</filter>
<filter id="filter2_i_195_3" x="111.5" y="112.982" width="338.36" height="348.518" filterUnits="userSpaceOnUse" color-interpolation-filters="sRGB">
<feFlood flood-opacity="0" result="BackgroundImageFix"/>
<feBlend mode="normal" in="SourceGraphic" in2="BackgroundImageFix" result="shape"/>
<feColorMatrix in="SourceAlpha" type="matrix" values="0 0 0 0 0 0 0 0 0 0 0 0 0 0 0 0 0 0 127 0" result="hardAlpha"/>
<feMorphology radius="16" operator="erode" in="SourceAlpha" result="effect1_innerShadow_195_3"/>
<feOffset dy="8"/>
<feGaussianBlur stdDeviation="12.5"/>
<feComposite in2="hardAlpha" operator="arithmetic" k2="-1" k3="1"/>
<feColorMatrix type="matrix" values="0 0 0 0 0.964706 0 0 0 0 0.564706 0 0 0 0 0.00784314 0 0 0 1 0"/>
<feBlend mode="normal" in2="shape" result="effect1_innerShadow_195_3"/>
</filter>
<filter id="filter3_i_195_3" x="101.915" y="102.832" width="357.113" height="360.371" filterUnits="userSpaceOnUse" color-interpolation-filters="sRGB">
<feFlood flood-opacity="0" result="BackgroundImageFix"/>
<feBlend mode="normal" in="SourceGraphic" in2="BackgroundImageFix" result="shape"/>
<feColorMatrix in="SourceAlpha" type="matrix" values="0 0 0 0 0 0 0 0 0 0 0 0 0 0 0 0 0 0 127 0" result="hardAlpha"/>
<feOffset/>
<feGaussianBlur stdDeviation="2.5"/>
<feComposite in2="hardAlpha" operator="arithmetic" k2="-1" k3="1"/>
<feColorMatrix type="matrix" values="0 0 0 0 0.964706 0 0 0 0 0.564706 0 0 0 0 0.00784314 0 0 0 1 0"/>
<feBlend mode="normal" in2="shape" result="effect1_innerShadow_195_3"/>
</filter>
<filter id="filter4_f_195_3" x="92" y="68.8406" width="389.43" height="451.065" filterUnits="userSpaceOnUse" color-interpolation-filters="sRGB">
<feFlood flood-opacity="0" result="BackgroundImageFix"/>
<feBlend mode="normal" in="SourceGraphic" in2="BackgroundImageFix" result="shape"/>
<feGaussianBlur stdDeviation="12.5" result="effect1_foregroundBlur_195_3"/>
</filter>
<filter id="filter5_di_195_3" x="194" y="161" width="171" height="252" filterUnits="userSpaceOnUse" color-interpolation-filters="sRGB">
<feFlood flood-opacity="0" result="BackgroundImageFix"/>
<feColorMatrix in="SourceAlpha" type="matrix" values="0 0 0 0 0 0 0 0 0 0 0 0 0 0 0 0 0 0 127 0" result="hardAlpha"/>
<feOffset dy="6"/>
<feComposite in2="hardAlpha" operator="out"/>
<feColorMatrix type="matrix" values="0 0 0 0 0 0 0 0 0 0 0 0 0 0 0 0 0 0 0.25 0"/>
<feBlend mode="normal" in2="BackgroundImageFix" result="effect1_dropShadow_195_3"/>
<feBlend mode="normal" in="SourceGraphic" in2="effect1_dropShadow_195_3" result="shape"/>
<feColorMatrix in="SourceAlpha" type="matrix" values="0 0 0 0 0 0 0 0 0 0 0 0 0 0 0 0 0 0 127 0" result="hardAlpha"/>
<feOffset dy="3"/>
<feComposite in2="hardAlpha" operator="arithmetic" k2="-1" k3="1"/>
<feColorMatrix type="matrix" values="0 0 0 0 1 0 0 0 0 0.909804 0 0 0 0 0.329412 0 0 0 1 0"/>
<feBlend mode="normal" in2="shape" result="effect2_innerShadow_195_3"/>
</filter>
<linearGradient id="paint0_linear_195_3" x1="363.191" y1="83.4275" x2="195.296" y2="481.512" gradientUnits="userSpaceOnUse">
<stop stop-color="#FFD843"/>
<stop offset="0.504" stop-color="#FFBF2B"/>
<stop offset="1" stop-color="#FFA412"/>
</linearGradient>
<linearGradient id="paint1_linear_195_3" x1="977.41" y1="172.915" x2="826.168" y2="531.516" gradientUnits="userSpaceOnUse">
<stop stop-color="#FFD843"/>
<stop offset="0.5" stop-color="#FFBF2B"/>
<stop offset="1" stop-color="#FFA412"/>
</linearGradient>
<linearGradient id="paint2_linear_195_3" x1="363.191" y1="83.4275" x2="195.296" y2="481.512" gradientUnits="userSpaceOnUse">
<stop stop-color="#FFD843"/>
<stop offset="0.504" stop-color="#FFBF2B"/>
<stop offset="1" stop-color="#FFA412"/>
</linearGradient>
<linearGradient id="paint3_linear_195_3" x1="395.267" y1="149.717" x2="94.8012" y2="519.086" gradientUnits="userSpaceOnUse">
<stop offset="0.0139996" stop-color="#FFBF2B" stop-opacity="0.15"/>
<stop offset="0.499" stop-color="#FFD843" stop-opacity="0.65"/>
<stop offset="1" stop-color="#FFE854" stop-opacity="0.25"/>
</linearGradient>
<linearGradient id="paint4_linear_195_3" x1="279.5" y1="161" x2="279.5" y2="407" gradientUnits="userSpaceOnUse">
<stop stop-color="#FFD843"/>
<stop offset="0.504" stop-color="#FFBF2B"/>
<stop offset="1" stop-color="#FFA412"/>
</linearGradient>
<linearGradient id="paint5_linear_195_3" x1="222.25" y1="236.5" x2="222.25" y2="336.403" gradientUnits="userSpaceOnUse">
<stop stop-color="#BF8207"/>
<stop offset="1" stop-color="#FFE854"/>
</linearGradient>
</defs>
</svg>
